<?xml version="1.0" encoding="UTF-8"?>
<svg width="16px" height="17px" viewBox="0 0 16 17" version="1.1" xmlns="http://www.w3.org/2000/svg" xmlns:xlink="http://www.w3.org/1999/xlink">
    <!-- Generator: Sketch 55.2 (78181) - https://sketchapp.com -->
    <title>在线教育</title>
    <desc>Created with Sketch.</desc>
    <defs>
        <rect id="path-1" x="0" y="0" width="1440" height="60"></rect>
        <filter x="-1.0%" y="-25.0%" width="102.1%" height="150.0%" filterUnits="objectBoundingBox" id="filter-2">
            <feOffset dx="0" dy="0" in="SourceAlpha" result="shadowOffsetOuter1"></feOffset>
            <feGaussianBlur stdDeviation="5" in="shadowOffsetOuter1" result="shadowBlurOuter1"></feGaussianBlur>
            <feColorMatrix values="0 0 0 0 0   0 0 0 0 0   0 0 0 0 0  0 0 0 0.05 0" type="matrix" in="shadowBlurOuter1"></feColorMatrix>
        </filter>
    </defs>
    <g id="jiker-clould" stroke="none" stroke-width="1" fill="none" fill-rule="evenodd">
        <g id="index" transform="translate(-1180.000000, -21.000000)">
            <rect fill="#F8FAFC" x="0" y="0" width="1440" height="2403"></rect>
            <g id="Rectangle" fill-rule="nonzero">
                <use fill="black" fill-opacity="1" filter="url(#filter-2)" xlink:href="#path-1"></use>
                <use fill="#FFFFFF" xlink:href="#path-1"></use>
            </g>
            <g id="在线教育" transform="translate(1180.000000, 21.000000)" fill="#838CA1" fill-rule="nonzero">
                <path d="M13.8452773,13.8507563 L2.15590397,13.8507563 C0.967464387,13.8507563 0.000600240096,12.6434094 0.000600240096,11.1593758 L0.000600240096,2.32602641 C0.000600240096,1.05382953 0.829450808,0.0187995198 1.84826713,0.0187995198 L13.8452965,0.0187995198 C15.0337361,0.0187995198 16.0006002,1.22614646 16.0006002,2.71018007 L16.0006002,11.1593758 C16.0006002,12.6434094 15.0337169,13.8507563 13.8452773,13.8507563 Z M1.53721489,2.32605042 L1.53721489,11.1593998 C1.53721489,11.7961585 1.93555047,12.3141657 2.42516206,12.3141657 L13.6492677,12.3141657 C14.1388978,12.3141657 14.5372149,11.7961585 14.5372149,11.1593998 L14.5372149,2.71018007 C14.5372149,2.07344538 14.1388978,1.55541417 13.6492677,1.55541417 L2.12977045,1.55541417 C1.80303041,1.55541417 1.53721489,1.90112845 1.53721489,2.32605042 Z M14.8573342,16.920072 L1.14266585,16.920072 C0.511592925,16.920072 4.6948773e-14,16.5760864 4.6948773e-14,16.1517647 C4.6948773e-14,15.727443 0.511592925,15.3834574 1.14266585,15.3834574 L14.8573342,15.3834574 C15.4884071,15.3834574 16,15.727443 16,16.1517647 C16,16.5760864 15.4884071,16.920072 14.8573342,16.920072 Z M10.2035661,7.49608807 L6.75691123,9.65024738 C6.66324392,9.70878944 6.53985385,9.68031481 6.48131178,9.5866475 C6.46144533,9.55486118 6.45091144,9.51813166 6.45091144,9.48064772 L6.45091144,4.74149725 C6.45091144,4.6310403 6.54045449,4.54149725 6.65091144,4.54149725 C6.69418549,4.54149725 6.73629221,4.55553282 6.77091144,4.58149725 L10.2175663,7.16648841 C10.3059319,7.23276258 10.3238405,7.35812285 10.2575663,7.44648841 C10.2427766,7.46620807 10.2244689,7.48302382 10.2035661,7.49608807 Z" id="Shape"></path>
            </g>
        </g>
    </g>
</svg>