<?xml version="1.0" encoding="UTF-8"?>
<svg width="16px" height="17px" viewBox="0 0 16 17" version="1.1" xmlns="http://www.w3.org/2000/svg" xmlns:xlink="http://www.w3.org/1999/xlink">
    <!-- Generator: Sketch 55.2 (78181) - https://sketchapp.com -->
    <title>搜索 (1)</title>
    <desc>Created with Sketch.</desc>
    <g id="jiker-clould" stroke="none" stroke-width="1" fill="none" fill-rule="evenodd">
        <g id="index" transform="translate(-1015.000000, -22.000000)" fill="#999999">
            <g id="搜索-(1)" transform="translate(1015.000000, 22.000000)">
                <path d="M7.33333333,1.6265 C10.5254902,1.6265 13.1137255,4.2665 13.1137255,7.5225 C13.1137255,10.7785 10.5254902,13.4185 7.33333333,13.4185 C4.14117647,13.4185 1.55294118,10.7785 1.55294118,7.5225 C1.55294118,4.2665 4.14117647,1.6265 7.33333333,1.6265 L7.33333333,1.6265 Z M7.33333333,0.0425 C3.27843137,0.0425 0,3.3865 0,7.5225 C0,11.6585 3.27843137,15.0025 7.33333333,15.0025 C11.3882353,15.0025 14.6666667,11.6585 14.6666667,7.5225 C14.6666667,3.3865 11.3882353,0.0425 7.33333333,0.0425 Z" id="Shape" fill-rule="nonzero"></path>
                <path d="M15.2187029,16.3625 C15.0286576,16.3625 14.8386124,16.2757574 14.6907994,16.1239579 L11.5656109,12.9144818 C11.4177979,12.7626822 11.3333333,12.5675114 11.3333333,12.3723405 C11.3333333,12.1771697 11.4177979,11.9819989 11.5656109,11.8301993 C11.8612368,11.5266002 12.346908,11.5266002 12.6425339,11.8301993 L15.7677225,15.0396754 C15.9155354,15.1914749 16,15.3866458 16,15.5818166 C16,15.7769875 15.9155354,15.9721583 15.7677225,16.1239579 C15.5987934,16.2757574 15.4087481,16.3625 15.2187029,16.3625 L15.2187029,16.3625 Z" id="Path"></path>
            </g>
        </g>
    </g>
</svg>