<?xml version="1.0" encoding="UTF-8"?>
<svg width="12px" height="12px" viewBox="0 0 12 12" version="1.1" xmlns="http://www.w3.org/2000/svg" xmlns:xlink="http://www.w3.org/1999/xlink">
    <!-- Generator: Sketch 55.2 (78181) - https://sketchapp.com -->
    <title>Fill 1</title>
    <desc>Created with Sketch.</desc>
    <g id="jiker-clould" stroke="none" stroke-width="1" fill="none" fill-rule="evenodd">
        <g id="index" transform="translate(-1076.000000, -1134.000000)" fill="#999999">
            <g id="1-copy-8备份-5" transform="translate(1004.000000, 924.000000)">
                <path d="M78.75,215.7 L80.025,216.45 C80.4,216.675 80.475,217.125 80.325,217.5 C80.175,217.875 79.65,217.95 79.275,217.8 L77.25,216.525 L77.25,213.75 C77.25,213.3 77.55,213 78,213 C78.45,213 78.75,213.3 78.75,213.75 L78.75,215.7 Z M78,210 C81.3,210 84,212.7 84,216 C84,219.3 81.3,222 78,222 C74.7,222 72,219.3 72,216 C72,212.7 74.7,210 78,210 L78,210 Z M78,211.5 C75.525,211.5 73.5,213.525 73.5,216 C73.5,218.475 75.525,220.5 78,220.5 C80.475,220.5 82.5,218.475 82.5,216 C82.5,213.525 80.475,211.5 78,211.5 L78,211.5 Z" id="Fill-1"></path>
            </g>
        </g>
    </g>
</svg>